<svg height="512pt" viewBox="-7 0 512 512.0009" width="512pt" xmlns="http://www.w3.org/2000/svg"><path d="m404.085938 190.582031c-27.316407-6.496093-57.710938 11.824219-86.75 23.375-22.390626 8.902344-43.980469 13.785157-62.734376.160157-36.101562-26.21875-21.035156-86.175782-53.964843-116.804688-22.964844-21.359375-59.226563-22.761719-87.0625-11.027344-29.699219 12.519532-52.292969 37.636719-70.300781 64.363282-19.441407 28.855468-34.898438 60.949218-40.71875 95.253906-10.152344 59.828125 10.664062 122.851562 49.9375 169.113281 39.277343 46.261719 95.578124 76.375 154.765624 89.765625 26.71875 6.046875 54.332032 8.875 81.597657 6.21875 52.898437-5.152344 103.394531-31.75 137.566406-72.460938 29.714844-35.410156 48.195313-83.449218 48.636719-130.386718.441406-47.136719-20.089844-105.472656-70.972656-117.570313zm-216.847657 52.285157c-3.054687 2.203124-6.675781 3.773437-10.441406 3.816406-11.855469.136718-17.949219-12.285156-21.125-21.832032-2.71875-8.171874-5.34375-16.019531-10.386719-23.113281-4.820312-6.78125-11.144531-12.183593-18.0625-16.730469-5.492187-3.613281-12.953125-7.515624-16.003906-13.582031-3.265625-6.492187-4.042969-14.484375-2.65625-21.5625 1.640625-8.359375 6.835938-17.578125 14.449219-21.875 19.160156-10.824219 37.511719 7.324219 45.988281 22.894531 1.203125 2.203126 2.378906 4.425782 3.546875 6.65625 4.96875 9.527344 9.660156 19.253907 14.523437 28.8125 2.90625 5.710938 5.769532 11.453126 8.296876 17.34375 1.613281 3.757813 3.652343 7.984376 3.898437 12.140626.609375 10.273437-3.683594 21.007812-12.027344 27.03125zm0 0" fill="#b07d55"/><path d="m238.15625 504.78125c-59.1875-13.390625-115.488281-43.503906-154.761719-89.765625-39.277343-46.257813-60.089843-109.285156-49.9375-169.113281 5.820313-34.304688 21.277344-66.398438 40.714844-95.253906 18.011719-26.726563 40.605469-51.84375 70.300781-64.363282 6.558594-2.765625 13.589844-4.789062 20.796875-6.007812-17.292969-3.085938-35.859375-.667969-51.695312 6.007812-29.699219 12.519532-52.292969 37.636719-70.300781 64.363282-19.441407 28.855468-34.898438 60.949218-40.71875 95.253906-10.152344 59.828125 10.660156 122.851562 49.9375 169.113281 39.273437 46.261719 95.574218 76.375 154.761718 89.765625 24.851563 5.625 50.472656 8.457031 75.867188 6.691406-15.121094-.992187-30.179688-3.34375-44.964844-6.691406zm0 0" fill="#a26349"/><path d="m108.367188 261.1875c0 16.195312-13.128907 29.320312-29.320313 29.320312-16.195313 0-29.320313-13.125-29.320313-29.320312s13.125-29.320312 29.320313-29.320312c16.191406 0 29.320313 13.125 29.320313 29.320312zm0 0" fill="#fe4455"/><path d="m140.132812 364.3125c0 16.191406-13.125 29.320312-29.320312 29.320312s-29.320312-13.128906-29.320312-29.320312c0-16.195312 13.125-29.320312 29.320312-29.320312s29.320312 13.125 29.320312 29.320312zm0 0" fill="#ff646f"/><path d="m228.9375 430.964844c0 16.195312-13.125 29.320312-29.320312 29.320312-16.191407 0-29.320313-13.125-29.320313-29.320312 0-16.191406 13.128906-29.320313 29.320313-29.320313 16.195312 0 29.320312 13.128907 29.320312 29.320313zm0 0" fill="#ffd480"/><path d="m346.9375 435.78125c0 16.195312-13.128906 29.324219-29.320312 29.324219-16.195313 0-29.320313-13.128907-29.320313-29.324219 0-16.191406 13.125-29.320312 29.320313-29.320312 16.191406 0 29.320312 13.128906 29.320312 29.320312zm0 0" fill="#a5cdff"/><path d="m400.339844 144.183594c.160156-.007813 38.425781-8.644532 53.160156-21.355469l3.238281-2.792969c9.886719-8.53125 17.921875-19.058594 23.175781-31.011718 8.539063-19.414063 12.210938-40.300782 15.011719-56.09375 1.804688-10.164063 2.269531-20.417969 3.792969-30.582032.355469-2.34374975-2.644531-3.25-4.0625-1.234375-14.195312 20.152344-32.582031 36.414063-55.097656 46.761719-19.175782 8.8125-72.261719 10.472656-68.4375 65.945312l-.835938 32.269532zm0 0" fill="#ffd480"/><path d="m370.363281 113.035156 33.058594 34.355469c2.390625 2.484375 2.246094 6.453125-.320313 8.753906l-373.679687 334.832031c-5.761719 5.207032-14.429687 4.992188-19.535156-.320312-5.105469-5.308594-4.980469-13.976562.449219-19.53125l351.296874-358.132812c2.402344-2.449219 6.355469-2.429688 8.730469.042968zm0 0" fill="#88544f"/><path d="m41.238281 471.125 340.085938-346.703125-10.960938-11.390625c-2.378906-2.46875-6.328125-2.488281-8.730469-.039062l-351.296874 358.132812c-5.429688 5.554688-5.554688 14.21875-.449219 19.53125s13.773437 5.527344 19.535156.320312l7.898437-7.078124c-.84375-4.402344.449219-9.222657 3.917969-12.773438zm0 0" fill="#804246"/><path d="m498.71875 2.351562c-1.523438 10.167969-1.984375 20.414063-3.789062 30.578126-2.800782 15.789062-6.476563 36.679687-15.015626 56.09375-5.253906 11.957031-13.285156 22.484374-23.175781 31.011718l-3.234375 2.789063c-14.734375 12.722656-53 21.351562-53.164062 21.363281l-13.421875-13.945312c8.054687-48.820313 36.402343-24.101563 62.386719-49.582032 25.222656-24.742187 40.09375-59.246094 47.902343-80.6054685.957031.2265625 1.699219 1.0625005 1.511719 2.2968745zm0 0" fill="#f2bd5f"/><path d="m403.097656 156.144531-25.582031 22.925781-40.992187-40.484374 25.109374-25.59375c2.402344-2.449219 6.355469-2.429688 8.734376.042968l.753906.78125v.007813l15.796875 16.417969 13.421875 13.945312 3.078125 3.199219c2.394531 2.484375 2.246093 6.457031-.320313 8.757812zm0 0" fill="#b1f192"/><path d="m381.046875 124.140625-9.925781-10.316406v-.011719l-.753906-.78125c-2.378907-2.46875-6.328126-2.488281-8.734376-.039062l-25.109374 25.589843 15.414062 15.226563zm0 0" fill="#a1d685"/></svg>