<svg xmlns="http://www.w3.org/2000/svg" xmlns:xlink="http://www.w3.org/1999/xlink" width="382" height="142" viewBox="0 0 382 142"><defs><clipPath id="b"><rect width="382" height="142"/></clipPath></defs><g id="a" clip-path="url(#b)"><rect width="382" height="142" fill="#fff"/><g transform="translate(9.457 9.491)"><path d="M97.09,105.768c-6.563-1.561-13.866,2.841-20.843,5.616-5.38,2.139-10.567,3.312-15.073.038-8.674-6.3-5.054-20.705-12.966-28.065-5.518-5.132-14.23-5.469-20.918-2.65C20.153,83.717,14.724,89.752,10.4,96.173,5.726,103.106,2.013,110.817.614,119.06c-2.439,14.375,2.562,29.517,12,40.633S35.577,178.043,49.8,181.26A61.9,61.9,0,0,0,69.4,182.755a49.988,49.988,0,0,0,33.053-17.41,50.724,50.724,0,0,0,11.686-31.328C114.248,122.691,109.315,108.675,97.09,105.768Zm-52.1,12.563a4.457,4.457,0,0,1-2.509.917c-2.849.033-4.313-2.952-5.076-5.246a20.189,20.189,0,0,0-2.5-5.553,15.979,15.979,0,0,0-4.34-4.02c-1.32-.868-3.112-1.806-3.845-3.263a8.273,8.273,0,0,1-.638-5.181,7.947,7.947,0,0,1,3.472-5.256c4.6-2.6,9.013,1.76,11.05,5.5.289.529.572,1.063.852,1.6,1.194,2.289,2.321,4.626,3.49,6.923.7,1.372,1.386,2.752,1.993,4.167a9.211,9.211,0,0,1,.937,2.917A7.522,7.522,0,0,1,44.988,118.331Zm0,0" transform="translate(0 -59.977)" fill="#b07d55"/><path d="M57.222,181.265C43,178.047,29.473,170.812,20.037,159.7s-14.438-26.258-12-40.633c1.4-8.242,5.112-15.953,9.783-22.887,4.328-6.422,9.756-12.456,16.891-15.465a22.6,22.6,0,0,1,5-1.443,22.434,22.434,0,0,0-12.421,1.443C20.153,83.721,14.724,89.756,10.4,96.178c-4.671,6.933-8.385,14.644-9.783,22.887-2.439,14.375,2.561,29.517,12,40.633S35.576,178.047,49.8,181.265a63.032,63.032,0,0,0,18.229,1.608A69.672,69.672,0,0,1,57.222,181.265Zm0,0" transform="translate(0 -59.982)" fill="#a26349"/><path d="M63.816,238.912a7.045,7.045,0,1,1-7.045-7.045A7.045,7.045,0,0,1,63.816,238.912Zm0,0" transform="translate(-37.779 -176.157)" fill="#fe4455"/><path d="M95.582,342.037a7.045,7.045,0,1,1-7.045-7.045A7.045,7.045,0,0,1,95.582,342.037Zm0,0" transform="translate(-61.912 -254.504)" fill="#ff646f"/><path d="M184.386,408.689a7.045,7.045,0,1,1-7.045-7.045A7.044,7.044,0,0,1,184.386,408.689Zm0,0" transform="translate(-129.38 -305.142)" fill="#ffd480"/><path d="M302.386,413.506a7.045,7.045,0,1,1-7.045-7.045A7.045,7.045,0,0,1,302.386,413.506Zm0,0" transform="translate(-219.028 -308.801)" fill="#a5cdff"/><path d="M377.506,34.643c.038,0,9.232-2.077,12.773-5.131l.778-.671a21.1,21.1,0,0,0,5.568-7.451,58.584,58.584,0,0,0,3.607-13.478c.434-2.442.545-4.906.911-7.348a.519.519,0,0,0-.976-.3A33.1,33.1,0,0,1,386.929,11.5c-4.607,2.117-17.362,2.516-16.443,15.845l-.2,7.753Zm0,0" transform="translate(-281.317 0)" fill="#ffd480"/><path d="M93.665,111.617l7.943,8.255a1.462,1.462,0,0,1-.077,2.1l-89.784,80.45a3.377,3.377,0,0,1-4.694-.077,3.377,3.377,0,0,1,.108-4.693l84.406-86.048A1.462,1.462,0,0,1,93.665,111.617Zm0,0" transform="translate(-4.678 -84.458)" fill="#88544f"/><path d="M14.586,197.654l81.712-83.3-2.634-2.737a1.463,1.463,0,0,0-2.1-.009L7.162,197.654a3.377,3.377,0,0,0-.108,4.693,3.377,3.377,0,0,0,4.694.077l1.9-1.7A3.465,3.465,0,0,1,14.586,197.654Zm0,0" transform="translate(-4.678 -84.458)" fill="#804246"/><path d="M413.78.607c-.366,2.443-.477,4.9-.91,7.347a58.6,58.6,0,0,1-3.608,13.478,21.075,21.075,0,0,1-5.568,7.451l-.777.67c-3.54,3.057-12.734,5.13-12.774,5.133l-3.225-3.351c1.935-11.73,8.746-5.791,14.99-11.913,6.06-5.945,9.633-14.235,11.509-19.367A.468.468,0,0,1,413.78.607Zm0,0" transform="translate(-293.953 -0.042)" fill="#f2bd5f"/><path d="M352.519,121.974l-6.147,5.508-9.849-9.727,6.033-6.149a1.463,1.463,0,0,1,2.1.01l.181.188v0l3.8,3.945,3.225,3.351.74.769A1.463,1.463,0,0,1,352.519,121.974Zm0,0" transform="translate(-255.667 -84.458)" fill="#b1f192"/><path d="M347.221,114.284l-2.385-2.479v0l-.181-.188a1.464,1.464,0,0,0-2.1-.009l-6.033,6.148,3.7,3.658Zm0,0" transform="translate(-255.667 -84.458)" fill="#a1d685"/></g><text transform="translate(139 101)" fill="#b07d55" font-size="70" font-family="HelveticaNeue, Helvetica Neue"><tspan x="0" y="0">HYPER</tspan></text></g></svg>